REM MD5 05d3eac7f033f33cb4303f07ea0b843b
FILE "PlayStation Kiosk Demo Disc Version 1.20 (USA).bin" BINARY
  TRACK 01 MODE2/2352
    INDEX 01 00:00:00
  TRACK 02 AUDIO
    INDEX 00 33:17:72
    INDEX 01 33:19:72
  TRACK 03 AUDIO
    INDEX 00 37:46:36
    INDEX 01 37:48:36
  TRACK 04 AUDIO
    INDEX 00 37:54:32
    INDEX 01 37:56:32
REM LEADOUT 38:02:28
